<?xml version="1.0" standalone="no"?>
<!DOCTYPE svg PUBLIC "-//W3C//DTD SVG 20010904//EN"
 "http://www.w3.org/TR/2001/REC-SVG-20010904/DTD/svg10.dtd">
<svg version="1.0" xmlns="http://www.w3.org/2000/svg"
 width="700.000000pt" height="700.000000pt" viewBox="0 0 700.000000 700.000000"
 preserveAspectRatio="xMidYMid meet">
<metadata>
Created by potrace 1.14, written by Peter Selinger 2001-2017
</metadata>
<g transform="translate(0.000000,700.000000) scale(0.100000,-0.100000)"
fill="#000000" stroke="none">
<path d="M6131 5618 c-63 -24 -124 -82 -153 -145 l-22 -48 0 -1420 c-1 -1601
-7 -1472 77 -1556 111 -113 287 -110 394 5 79 87 73 -29 73 1547 0 1560 4
1455 -67 1538 -73 86 -197 118 -302 79z"/>
<path d="M730 5357 c-212 -30 -302 -289 -157 -449 18 -21 59 -49 90 -63 l56
-26 1411 0 c1585 0 1470 -6 1554 74 67 65 81 98 81 197 0 75 -3 91 -27 131
-33 56 -77 95 -138 122 -44 20 -63 21 -1431 21 -762 1 -1410 -2 -1439 -7z"/>
<path d="M5036 5070 c-60 -24 -118 -78 -148 -139 l-22 -46 -2 -860 c-1 -569 2
-875 9 -905 30 -130 146 -216 277 -207 103 7 183 59 233 152 l22 40 0 890 c0
887 0 890 -21 935 -62 131 -215 193 -348 140z"/>
<path d="M3991 4539 c-60 -11 -123 -51 -160 -101 -58 -78 -62 -109 -58 -463 2
-307 3 -322 24 -361 35 -66 70 -101 128 -129 134 -66 293 -14 363 119 l27 51
0 345 c0 336 -1 346 -22 386 -35 66 -70 101 -126 128 -59 29 -113 36 -176 25z"/>
<path d="M732 4268 c-88 -13 -159 -64 -199 -142 -77 -152 -3 -332 159 -385 29
-10 272 -12 1027 -13 545 0 1005 3 1023 7 121 26 211 141 210 266 -1 108 -67
207 -166 250 l-51 22 -976 1 c-537 1 -999 -2 -1027 -6z"/>
<path d="M775 3180 c-88 -6 -150 -31 -197 -80 -116 -121 -95 -325 42 -416 76
-51 41 -50 1515 -49 759 1 1401 5 1427 9 25 4 52 14 58 21 7 8 18 15 24 15 17
0 81 69 102 110 24 47 28 167 7 218 -35 86 -118 156 -197 167 -52 7 -2673 12
-2781 5z"/>
<path d="M542 832 c-30 -23 -40 -83 -18 -116 29 -46 123 -44 141 2 10 26 -11
36 -28 12 -19 -27 -61 -35 -81 -14 -25 25 -21 81 9 100 23 15 65 12 65 -6 0
-12 29 -20 35 -10 3 5 -3 18 -15 30 -25 25 -77 26 -108 2z"/>
<path d="M1093 843 c-7 -3 -13 -11 -13 -18 0 -7 -6 -16 -12 -19 -10 -5 -10 -7
0 -12 6 -3 12 -23 12 -44 0 -21 3 -45 6 -54 7 -17 54 -22 54 -6 0 6 -7 10 -15
10 -11 0 -15 12 -15 45 0 33 4 45 15 45 8 0 15 5 15 10 0 6 -6 10 -14 10 -8 0
-16 8 -18 18 -2 11 -9 17 -15 15z"/>
<path d="M1400 818 c0 -25 -3 -29 -12 -20 -18 18 -53 15 -71 -6 -23 -25 -21
-68 3 -92 22 -22 66 -27 73 -7 4 10 6 10 6 0 1 -7 8 -13 16 -13 12 0 15 16 15
85 0 69 -3 85 -15 85 -10 0 -15 -10 -15 -32z m-10 -47 c15 -30 12 -49 -11 -61
-25 -14 -49 2 -49 34 0 43 41 61 60 27z"/>
<path d="M1530 767 l0 -84 49 -1 c55 -1 68 8 77 55 8 43 -26 78 -67 69 -26 -5
-29 -3 -29 19 0 16 -6 25 -15 25 -12 0 -15 -16 -15 -83z m88 11 c30 -30 -2
-93 -36 -71 -21 13 -27 50 -12 69 15 17 32 18 48 2z"/>
<path d="M2460 841 c0 -5 -8 -17 -17 -27 -13 -13 -14 -19 -5 -22 7 -2 12 -24
12 -58 0 -41 4 -54 15 -54 11 0 15 13 15 54 0 34 5 56 13 59 9 4 8 8 -3 16
-12 9 -12 11 3 17 9 3 14 10 11 15 -7 12 -44 12 -44 0z"/>
<path d="M690 744 c0 -50 3 -64 15 -64 11 0 15 12 15 44 0 37 5 48 27 64 l26
19 -41 0 -42 0 0 -63z"/>
<path d="M790 790 c-11 -11 -20 -31 -20 -45 0 -53 69 -85 105 -49 22 22 11 30
-20 14 -20 -11 -27 -11 -40 0 -26 22 -16 31 30 27 41 -3 45 -2 45 18 0 49 -64
71 -100 35z m68 -17 c2 -9 -7 -13 -28 -13 -28 0 -31 2 -20 15 15 18 41 16 48
-2z"/>
<path d="M929 790 c-23 -19 -23 -19 -3 -20 11 0 25 5 31 11 13 13 43 5 43 -10
0 -5 -18 -12 -40 -16 -27 -4 -41 -13 -45 -26 -11 -33 11 -48 69 -46 l53 1 -5
51 c-2 27 -9 56 -14 63 -15 18 -63 15 -89 -8z m71 -64 c0 -18 -39 -31 -52 -18
-15 15 0 32 28 32 14 0 24 -6 24 -14z"/>
<path d="M1180 788 c-25 -28 -26 -62 0 -88 24 -24 63 -26 84 -4 25 24 9 35
-24 16 -27 -15 -32 -15 -40 -2 -13 21 -12 31 3 29 6 -1 29 -1 49 0 31 1 36 4
31 19 -19 53 -68 68 -103 30z m70 -13 c11 -13 7 -15 -23 -15 -28 0 -35 3 -31
15 4 8 14 15 24 15 10 0 23 -7 30 -15z"/>
<path d="M1675 793 c4 -10 15 -42 25 -70 19 -52 19 -53 -1 -63 -24 -14 -25
-30 0 -30 25 0 35 14 65 94 30 79 31 86 12 86 -12 0 -23 -23 -32 -68 -4 -23
-13 -26 -20 -6 -18 57 -28 74 -41 74 -10 0 -13 -6 -8 -17z"/>
<path d="M1870 807 c0 -2 11 -31 24 -66 25 -61 25 -62 5 -82 -24 -24 -24 -29
0 -29 25 0 35 14 65 94 30 79 31 86 12 86 -7 0 -19 -20 -26 -47 l-14 -46 -12
29 c-7 16 -15 37 -18 47 -4 13 -36 26 -36 14z"/>
<path d="M2030 790 c-58 -58 20 -142 88 -94 45 31 14 114 -43 114 -14 0 -34
-9 -45 -20z m68 -12 c30 -30 -2 -93 -36 -71 -21 13 -27 50 -12 69 15 17 32 18
48 2z"/>
<path d="M2169 794 c-18 -22 -1 -46 40 -58 17 -5 30 -14 28 -20 -6 -18 -36
-19 -54 0 -12 11 -18 13 -21 5 -11 -34 55 -55 92 -28 27 20 16 48 -23 61 -39
13 -53 36 -22 36 12 0 21 -4 21 -10 0 -5 7 -10 15 -10 8 0 15 6 15 14 0 28
-69 36 -91 10z"/>
<path d="M2309 789 c-47 -47 3 -126 67 -104 31 11 44 35 20 35 -9 0 -16 -4
-16 -10 0 -14 -33 -13 -48 2 -21 21 -13 30 28 27 54 -4 66 10 40 44 -26 33
-62 35 -91 6z m69 -16 c2 -9 -7 -13 -27 -13 -31 0 -42 14 -18 23 19 8 40 3 45
-10z"/>
<path d="M533 573 c-4 -10 -11 -22 -17 -26 -8 -6 -7 -10 2 -14 7 -3 12 -25 12
-59 0 -41 4 -54 15 -54 11 0 15 13 15 54 0 34 5 56 13 59 9 4 8 8 -3 16 -12 9
-12 11 3 17 9 3 14 10 11 15 -9 16 -44 10 -51 -8z"/>
<path d="M1120 505 c0 -69 3 -85 15 -85 12 0 15 14 15 62 l0 61 40 -61 c56
-88 70 -83 70 23 0 69 -3 85 -15 85 -12 0 -15 -14 -15 -62 l0 -61 -40 61 c-56
88 -70 83 -70 -23z"/>
<path d="M1800 505 c0 -69 3 -85 15 -85 10 0 15 11 15 35 0 35 0 35 45 35 50
0 72 23 59 63 -10 31 -22 37 -81 37 l-53 0 0 -85z m98 56 c8 -5 12 -17 10 -27
-2 -14 -13 -20 -41 -22 -35 -3 -37 -2 -37 27 0 27 3 31 28 31 15 0 33 -4 40
-9z"/>
<path d="M2200 580 c0 -5 7 -10 15 -10 8 0 15 5 15 10 0 6 -7 10 -15 10 -8 0
-15 -4 -15 -10z"/>
<path d="M2563 583 c-7 -3 -13 -11 -13 -18 0 -7 -6 -16 -12 -18 -10 -4 -10 -7
-1 -14 6 -5 13 -31 15 -58 3 -46 5 -50 31 -53 29 -4 37 12 12 22 -10 3 -15 19
-15 46 0 29 4 40 15 40 8 0 15 5 15 10 0 6 -6 10 -14 10 -8 0 -16 8 -18 18 -2
11 -9 17 -15 15z"/>
<path d="M600 484 c0 -49 3 -64 14 -64 11 0 16 14 18 47 2 38 8 50 26 59 28
14 19 21 -25 22 l-33 1 0 -65z"/>
<path d="M700 530 c-11 -11 -20 -31 -20 -45 0 -14 9 -34 20 -45 11 -11 31 -20
45 -20 14 0 34 9 45 20 11 11 20 31 20 45 0 14 -9 34 -20 45 -11 11 -31 20
-45 20 -14 0 -34 -9 -45 -20z m70 -14 c28 -34 -11 -94 -44 -67 -21 18 -20 57
2 70 23 14 28 13 42 -3z"/>
<path d="M830 485 c0 -51 3 -65 15 -65 11 0 15 12 15 49 0 35 4 51 16 55 26
10 34 -3 34 -55 0 -37 4 -49 15 -49 11 0 15 12 15 49 0 35 4 51 16 55 26 10
34 -3 34 -55 0 -37 4 -49 15 -49 19 0 21 100 3 118 -14 14 -54 16 -63 2 -4 -6
-13 -5 -25 3 -16 9 -24 9 -40 -1 -12 -7 -20 -8 -20 -2 0 5 -7 10 -15 10 -12 0
-15 -14 -15 -65z"/>
<path d="M1310 530 c-11 -11 -20 -31 -20 -45 0 -14 9 -34 20 -45 11 -11 31
-20 45 -20 14 0 34 9 45 20 11 11 20 31 20 45 0 14 -9 34 -20 45 -11 11 -31
20 -45 20 -14 0 -34 -9 -45 -20z m68 -12 c30 -30 -2 -93 -36 -71 -21 13 -27
50 -12 69 15 17 32 18 48 2z"/>
<path d="M1440 504 c0 -68 11 -82 65 -82 l45 1 0 64 c0 49 -3 63 -15 63 -10 0
-14 -12 -13 -46 0 -29 -4 -49 -13 -55 -25 -16 -34 -3 -37 49 -2 37 -7 52 -18
52 -10 0 -14 -12 -14 -46z"/>
<path d="M1580 485 c0 -51 3 -65 15 -65 11 0 15 12 15 49 0 35 4 51 16 55 26
10 34 -3 34 -55 0 -38 4 -49 15 -49 13 0 15 11 13 56 -3 66 -23 88 -58 66 -12
-7 -20 -8 -20 -2 0 5 -7 10 -15 10 -12 0 -15 -14 -15 -65z"/>
<path d="M1960 484 c0 -49 3 -64 14 -64 11 0 16 14 18 47 2 39 7 50 28 60 14
7 23 13 20 14 -3 1 -22 3 -42 4 l-38 4 0 -65z"/>
<path d="M2080 543 c-63 -23 -43 -123 25 -123 14 0 34 9 45 20 50 50 -2 127
-70 103z m48 -25 c32 -32 1 -89 -37 -68 -26 13 -28 55 -3 69 22 13 26 13 40
-1z"/>
<path d="M2200 471 c0 -54 -4 -81 -12 -84 -7 -2 -9 -8 -5 -13 4 -4 16 -3 25 2
24 16 31 174 7 174 -12 0 -15 -15 -15 -79z"/>
<path d="M2270 530 c-11 -11 -20 -31 -20 -45 0 -53 69 -85 105 -49 22 22 11
30 -20 14 -20 -11 -27 -11 -40 0 -25 21 -17 29 27 27 34 -2 43 2 46 16 5 25
-26 57 -55 57 -12 0 -32 -9 -43 -20z m68 -17 c2 -9 -7 -13 -27 -13 -31 0 -42
14 -18 23 19 8 40 3 45 -10z"/>
<path d="M2410 530 c-41 -41 -13 -110 46 -110 19 0 54 28 54 43 0 13 -23 7
-35 -9 -18 -26 -57 -1 -53 33 4 34 35 54 51 33 16 -20 37 -23 37 -5 0 35 -69
46 -100 15z"/>
</g>
</svg>
